<svg xmlns="http://www.w3.org/2000/svg" width="1611" height="246.31" viewBox="0 0 1611 246.31">
  <defs>
    <style>
      .cls-1 {
        fill: #edeff1;
        fill-rule: evenodd;
      }
    </style>
  </defs>
  <path id="Our_Values" data-name="Our Values" class="cls-1" d="M1636.72,1629.49a45.622,45.622,0,0,0-20.25-5.1q-6.615,0-10.35,2.55a8.613,8.613,0,0,0-3.75,7.65,10.5,10.5,0,0,0,3.75,7.95,33.533,33.533,0,0,0,10.8,6.15q7.035,2.7,16.05,6.6a156.378,156.378,0,0,1,20.55,9.45,46.258,46.258,0,0,1,15.15,13.05q5.685,7.8,5.7,20.4,0,20.7-13.5,32.25t-37.2,11.55a86.7,86.7,0,0,1-48.75-14.25,122.555,122.555,0,0,1-17.55-13.95l18.9-24.3a125.474,125.474,0,0,0,16.2,13.05,66.652,66.652,0,0,0,14.25,7.35,38.068,38.068,0,0,0,12.75,2.4q7.785,0,12-3.45a11.6,11.6,0,0,0,4.2-9.45,13.066,13.066,0,0,0-3.45-9.15,31.074,31.074,0,0,0-10.05-6.75,164.094,164.094,0,0,0-16.8-6.3,141.429,141.429,0,0,1-18.6-8.55,43.862,43.862,0,0,1-14.85-13.2q-5.85-8.25-5.85-21.15,0-12.3,6.6-20.85a40.253,40.253,0,0,1,17.85-12.9,68.917,68.917,0,0,1,25.05-4.35,77.329,77.329,0,0,1,21.9,3,89.068,89.068,0,0,1,18.9,7.95,71.961,71.961,0,0,1,15.3,11.55l-17.1,24A60.643,60.643,0,0,0,1636.72,1629.49Zm-97.35,47.4H1433.12a51.253,51.253,0,0,0,3.5,13.8,31.1,31.1,0,0,0,12.15,14.7q8.1,5.1,19.5,5.1,12.885,0,22.05-4.95a39.959,39.959,0,0,0,15.15-14.85l33.9,10.5q-10.8,19.5-28.65,29.25t-42.75,9.75q-22.5,0-39.3-9a63.864,63.864,0,0,1-25.95-25.05q-9.165-16.05-9.15-37.95,0-22.2,9.15-38.25a62.888,62.888,0,0,1,25.95-24.9q16.8-8.85,39.6-8.85,22.785,0,38.85,8.25a56.184,56.184,0,0,1,24.45,24q8.385,15.75,8.4,37.95,0,2.7-.15,5.7T1539.37,1676.89Zm-44.85-37.8a28.589,28.589,0,0,0-10.65-11.4,30.592,30.592,0,0,0-16.2-4.2q-11.415,0-19.05,4.95t-11.7,14.7a51.67,51.67,0,0,0-2.89,9.75h64.11A34.994,34.994,0,0,0,1494.52,1639.09Zm-168.75,77.1a47.514,47.514,0,0,1-16.8,17.85q-10.2,6.15-24.9,6.15-24.6,0-36.75-14.1t-12.15-38.7v-88.2h40.2v84q0,13.5,5.4,20.85t17.4,7.35a29.269,29.269,0,0,0,14.55-3.45,24.349,24.349,0,0,0,9.6-9.75,30.782,30.782,0,0,0,3.45-15v-84h38.7v138h-38.7v-21Zm-168-213h39v234h-39v-234Zm-73.5,215.39a31.846,31.846,0,0,1-2.55,3.61,44.946,44.946,0,0,1-18.9,13.5,65.941,65.941,0,0,1-24.15,4.5,56.788,56.788,0,0,1-24-5.1,43.172,43.172,0,0,1-17.847-14.85q-6.75-9.75-6.75-23.85,0-20.1,14.1-31.8t39.9-11.7a90.007,90.007,0,0,1,23.25,2.7,73.1,73.1,0,0,1,16.95,6.6v-14.7a23.908,23.908,0,0,0-1.8-9.75,16.448,16.448,0,0,0-5.55-6.75,24.609,24.609,0,0,0-8.85-3.9,49.867,49.867,0,0,0-11.4-1.2,80.4,80.4,0,0,0-33.3,7.2,68.893,68.893,0,0,0-9.3,5.1l-14.4-26.4a180.24,180.24,0,0,1,26.4-10.95,108.663,108.663,0,0,1,34.8-5.25q17.7,0,31.5,5.1t21.6,14.85q7.8,9.75,7.8,23.85v97.8h-37.5v-18.61Zm0-36.77a61.581,61.581,0,0,0-8.25-3.12,73.556,73.556,0,0,0-21.15-3q-9,0-14.7,2.25a17.355,17.355,0,0,0-8.4,6.3,19.691,19.691,0,0,0,.3,20.4,18.7,18.7,0,0,0,8.25,6.6,29.019,29.019,0,0,0,11.55,2.25,34.54,34.54,0,0,0,16.2-3.75,30.314,30.314,0,0,0,11.7-10.8q4.5-7.05,4.5-16.95v-0.18Zm-285-154.62h49.5l57,136.8,56.7-136.8h49.8l-106.5,222.3ZM681.828,1634.14a23.091,23.091,0,0,0-10.05-1.95,19.649,19.649,0,0,0-12.3,3.9,23.3,23.3,0,0,0-7.65,10.95,49.942,49.942,0,0,0-2.55,16.95v73.2h-38.1v-138h38.1v17.02a52.806,52.806,0,0,1,12-12.67q10.194-7.65,21-7.65a38.027,38.027,0,0,1,14.25,2.7,25.635,25.635,0,0,1,10.95,8.1l-17.7,33A32.828,32.828,0,0,0,681.828,1634.14ZM534.08,1716.19a47.545,47.545,0,0,1-16.8,17.85q-10.2,6.15-24.9,6.15-24.6,0-36.75-14.1t-12.15-38.7v-88.2h40.2v84q0,13.5,5.4,20.85t17.4,7.35a29.279,29.279,0,0,0,14.55-3.45,24.374,24.374,0,0,0,9.6-9.75,30.816,30.816,0,0,0,3.45-15v-84h38.7v138h-38.7v-21Zm-151.646-4.8a104.011,104.011,0,0,1-35.1,23.25q-20.25,8.25-44.55,8.25t-44.55-8.25a105.617,105.617,0,0,1-35.25-23.25,103.715,103.715,0,0,1-23.1-35.25,117.258,117.258,0,0,1-8.1-43.95q0-24,8.4-43.95a103.879,103.879,0,0,1,58.65-57.3,125.874,125.874,0,0,1,88.05,0,106.158,106.158,0,0,1,35.25,22.65,102.141,102.141,0,0,1,23.4,34.65q8.247,19.95,8.25,43.95a115.416,115.416,0,0,1-8.25,43.95A106.839,106.839,0,0,1,382.434,1711.39Zm-22.35-114.9a61.493,61.493,0,0,0-22.8-24.6q-14.7-9-34.5-9-19.5,0-34.2,9a63.6,63.6,0,0,0-23.1,24.6q-8.4,15.6-8.4,35.7t8.4,35.7a63.6,63.6,0,0,0,23.1,24.6q14.7,9,34.2,9t34.2-9a62.584,62.584,0,0,0,22.95-24.6q8.247-15.6,8.25-35.7T360.084,1596.49Z" transform="translate(-191.781 -1503.19)"/>
</svg>
