<svg xmlns="http://www.w3.org/2000/svg" width="1206" height="239.69" viewBox="0 0 1206 239.69">
  <defs>
    <style>
      .cls-1 {
        fill: #edeff1;
        fill-rule: evenodd;
      }
    </style>
  </defs>
  <path id="Solution" class="cls-1" d="M1060.77,3019.19v-84q0-13.8-5.4-21t-17.4-7.2a29.489,29.489,0,0,0-14.4,3.45,23.143,23.143,0,0,0-9.6,9.75,31.929,31.929,0,0,0-3.3,15v84h-39v-138h39v21a44.968,44.968,0,0,1,16.65-17.85q10.35-6.15,25.05-6.15,24.6,0,36.6,13.95t12,38.85v88.2h-40.2Zm-155.548-6q-17.256,9-39.15,9t-39.15-9a68.723,68.723,0,0,1-27.3-25.35q-10.054-16.35-10.05-37.65,0-21.6,10.05-37.8a69.071,69.071,0,0,1,27.3-25.2q17.247-9,39.15-9t39.15,9a69.145,69.145,0,0,1,27.3,25.2q10.047,16.2,10.05,37.8,0,21.3-10.05,37.65A68.8,68.8,0,0,1,905.222,3013.19Zm-7.2-83.7a34.83,34.83,0,0,0-13.35-13.8,38.437,38.437,0,0,0-37.2,0,34.79,34.79,0,0,0-13.35,13.8,42.25,42.25,0,0,0-4.95,20.7,41.4,41.4,0,0,0,4.95,20.55,36.453,36.453,0,0,0,63.9,0,41.4,41.4,0,0,0,4.95-20.55A42.25,42.25,0,0,0,898.022,2929.49Zm-158.849-79.8a23.62,23.62,0,0,1-16.5-6.3,21.254,21.254,0,0,1,0-31.35,23.947,23.947,0,0,1,16.5-6.15,23.415,23.415,0,0,1,16.35,6.15,21.575,21.575,0,0,1,0,31.35A23.1,23.1,0,0,1,739.173,2849.69Zm-66.3,169.5h-37.5v-105.3h-23.7v-32.7h23.7v-48h37.5v48h24v32.7h-24v105.3Zm-120.6-21a47.545,47.545,0,0,1-16.8,17.85q-10.2,6.15-24.9,6.15-24.6,0-36.75-14.1t-12.15-38.7v-88.2h40.2v84q0,13.5,5.4,20.85t17.4,7.35a29.279,29.279,0,0,0,14.55-3.45,24.374,24.374,0,0,0,9.6-9.75,30.816,30.816,0,0,0,3.45-15v-84h38.7v138h-38.7v-21Zm-168-213h39v234h-39v-234Zm-66.447,228q-17.255,9-39.15,9t-39.15-9a68.723,68.723,0,0,1-27.3-25.35q-10.055-16.35-10.05-37.65,0-21.6,10.05-37.8a69.071,69.071,0,0,1,27.3-25.2q17.247-9,39.15-9t39.15,9a69.138,69.138,0,0,1,27.3,25.2q10.047,16.2,10.05,37.8,0,21.3-10.05,37.65A68.788,68.788,0,0,1,317.833,3013.19Zm-7.2-83.7a34.823,34.823,0,0,0-13.35-13.8,38.437,38.437,0,0,0-37.2,0,34.79,34.79,0,0,0-13.35,13.8,42.25,42.25,0,0,0-4.95,20.7,41.4,41.4,0,0,0,4.95,20.55,36.453,36.453,0,0,0,63.9,0,41.4,41.4,0,0,0,4.95-20.55A42.25,42.25,0,0,0,310.633,2929.49Zm-210.149-43.65a213.612,213.612,0,0,0,26.4,10.65,120.206,120.206,0,0,1,19.65,9,80.674,80.674,0,0,1,17.1,13.05,55.7,55.7,0,0,1,12,18,61.184,61.184,0,0,1,4.35,23.85,60.25,60.25,0,0,1-6,27.3,59.034,59.034,0,0,1-16.5,20.25,77.453,77.453,0,0,1-23.55,12.6,86.23,86.23,0,0,1-27.45,4.35,87.767,87.767,0,0,1-35.85-7.35,91.832,91.832,0,0,1-28.95-19.95,99.577,99.577,0,0,1-19.2-27.3l30.6-21.6a110.515,110.515,0,0,0,14.55,20.4,60.223,60.223,0,0,0,17.55,13.5,45.635,45.635,0,0,0,20.7,4.8q12.9,0,21-6.6t8.1-18q0-9.9-4.95-15.9t-14.7-10.65q-9.753-4.65-23.85-10.05-7.5-2.7-17.25-7.35a85.672,85.672,0,0,1-18.45-12,60.764,60.764,0,0,1-14.4-18q-5.7-10.65-5.7-25.65,0-18,9.15-31.05a59.156,59.156,0,0,1,24.9-20.1q15.75-7.05,35.25-7.05,20.1,0,34.65,6.75a78.046,78.046,0,0,1,24.3,17.1,86.976,86.976,0,0,1,15.15,21.45l-33.6,18.6a67.855,67.855,0,0,0-10.05-13.65,47.859,47.859,0,0,0-13.35-9.9,37.738,37.738,0,0,0-17.1-3.75q-12.6,0-18.9,5.85t-6.3,13.65a20.112,20.112,0,0,0,5.1,13.65Q89.981,2880.59,100.484,2885.84Zm657.289,133.35h-37.8v-138h37.8v138Z" transform="translate(-22.469 -2785.19)"/>
</svg>
