<svg xmlns="http://www.w3.org/2000/svg" width="607.5" height="74.126" viewBox="0 0 607.5 74.126">
  <defs>
    <style>
      .cls-1 {
        fill: #fff;
        fill-rule: evenodd;
      }
    </style>
  </defs>
  <path id="catch.svg" class="cls-1" d="M95.046,769.543c18.661,0,34.226-14.963,34.226-33.538a33.82,33.82,0,0,0-33.71-33.71c-18.575,0-34.054,15.135-34.054,33.366A33.707,33.707,0,0,0,95.046,769.543Zm0.086-9.2A24.428,24.428,0,0,1,95.39,711.5,24.424,24.424,0,0,1,95.132,760.342Zm52.376,8V747.787c0-9.546,3.611-12.986,9.459-12.986,5.246,0,7.74,2.838,7.74,10.664V768.34h9.459V743.229c0-10.75-4.644-16.941-14.1-16.941a15.355,15.355,0,0,0-12.384,5.5h-0.171v-4.386h-9.46V768.34h9.46Zm74.13-20.467c0-13.158-7.052-21.585-19.263-21.585-11.954,0-19.951,8.771-19.951,21.671s8,21.584,20.209,21.584c8.513,0,14.533-3.525,18.575-10.4l-7.74-4.73c-2.838,4.73-5.934,6.708-10.491,6.708-6.278,0-10.148-4.3-10.664-11.007h29.325v-2.236Zm-28.723-5.5c1.2-4.644,4.558-7.654,9.546-7.654s8.685,2.666,9.459,7.654H192.914Zm79.635,29.582,17.2-45.4,16.684,45.4h0.258L335.412,703.5H324.835l-17.973,43.342L289.92,701.005h-0.172l-17.371,45.836L255.436,703.5H244.859l27.518,68.452h0.172ZM346.423,715.8a6.149,6.149,0,1,0-6.191-6.191A6.22,6.22,0,0,0,346.423,715.8Zm4.73,52.544V727.406h-9.459V768.34h9.459Zm21.413,0V697.823h-9.459V768.34h9.459Zm21.327,0V697.823h-9.459V768.34h9.459Zm44.805,0V736.263h7.309v-8.857H438.7V712.443h-9.46v14.963h-6.621v8.857h6.621V768.34h9.46Zm32.421,1.2c13.243,0,22.015-9.459,22.015-21.584,0-12.212-8.858-21.671-21.843-21.671-13.071,0-21.757,9.717-21.757,21.327C449.534,760.084,458.22,769.543,471.119,769.543Zm0.172-8.427c-7.4,0-12.126-5.246-12.126-13.329,0-7.568,4.9-12.986,12.126-12.986,7.395,0,12.211,5.418,12.211,13.158C483.5,755.87,478.6,761.116,471.291,761.116Zm71.035,10.835,17.2-45.4,16.683,45.4h0.258L605.189,703.5H594.611l-17.973,43.342L559.7,701.005h-0.172l-17.371,45.836L525.213,703.5H514.636l27.518,68.452h0.172ZM616.2,715.8a6.149,6.149,0,1,0-6.192-6.191A6.22,6.22,0,0,0,616.2,715.8Zm4.73,52.544V727.406h-9.46V768.34h9.46Zm21.413,0V747.787c0-9.546,3.612-12.986,9.46-12.986,5.245,0,7.739,2.838,7.739,10.664V768.34H669V743.229c0-10.75-4.644-16.941-14.1-16.941a15.355,15.355,0,0,0-12.384,5.5h-0.172v-4.386h-9.459V768.34h9.459Z" transform="translate(-61.5 -697.812)"/>
</svg>
