<svg xmlns="http://www.w3.org/2000/svg" width="182.251" height="128.44" viewBox="0 0 182.251 128.44">
  <defs>
    <style>
      .cls-1 {
        fill: #fff;
        fill-rule: evenodd;
      }
    </style>
  </defs>
  <path id="Make_your_vision_reality." data-name="Make  your vision  reality." class="cls-1" d="M998.71,2075.75h5.15v-17.28H1004l6.09,17.28h4.5l5.9-17.28h0.11v17.28h5.07v-23.37h-7.52l-5.69,16.71-5.76-16.71h-7.99v23.37Zm36.72,0.36a11.181,11.181,0,0,0,3.96-.47,3.4,3.4,0,0,0,1.66-1.48v1.59h5.14v-11.99a6.546,6.546,0,0,0-.79-3.56,4.338,4.338,0,0,0-2.61-1.73,20.1,20.1,0,0,0-5.16-.51,55.65,55.65,0,0,0-6.66.36v3.32a58.58,58.58,0,0,1,6.12-.44,10.311,10.311,0,0,1,2.43.22,1.673,1.673,0,0,1,1.11.76,3.376,3.376,0,0,1,.31,1.65v1.19h-5.91a8.248,8.248,0,0,0-3.22.52,3.248,3.248,0,0,0-1.69,1.71,8.324,8.324,0,0,0-.52,3.28,9.743,9.743,0,0,0,.48,3.51,2.836,2.836,0,0,0,1.7,1.62,11.078,11.078,0,0,0,3.65.45h0Zm2.05-3.28a8.413,8.413,0,0,1-1.85-.14,0.986,0.986,0,0,1-.7-0.61,5.232,5.232,0,0,1-.18-1.66,5.563,5.563,0,0,1,.18-1.71,1.028,1.028,0,0,1,.68-0.65,6.309,6.309,0,0,1,1.73-.16h3.6v3.38a1.521,1.521,0,0,1-.15.76,1.1,1.1,0,0,1-.34.47,1.606,1.606,0,0,1-.7.21,15.215,15.215,0,0,1-2.27.11h0Zm13.32,2.92h5.26v-25.2h-5.26v25.2Zm11.77,0h5.94l-6.55-9.83,6.05-7.6H1062l-5.73,7.64Zm16.42,0.36a32.5,32.5,0,0,0,6.84-.69v-3.34a26.094,26.094,0,0,1-5.83.75,8.1,8.1,0,0,1-3.89-.65,2.314,2.314,0,0,1-1.08-2.16v-1.58h11.3v-4.25q0-3.375-1.92-4.8-1.935-1.425-6.07-1.43c-2.93,0-5.09.5-6.5,1.48a5.409,5.409,0,0,0-2.1,4.75v6.27q0,5.64,9.25,5.65h0Zm-3.96-10.66v-2.52a1.486,1.486,0,0,1,.68-1.29,5.1,5.1,0,0,1,2.56-.44,4.726,4.726,0,0,1,2.36.44,1.405,1.405,0,0,1,.7,1.29v2.52h-6.3Zm-74.77,65.67h5.33l9.54-24.92h-5.44l-3.56,12.32-3.93-12.32h-5.722l6.952,17.28Zm25.81-7.13c1.01,0,1.87-.04,2.59-0.11a11.513,11.513,0,0,0,2.43-.49,5.368,5.368,0,0,0,1.96-.99,4.729,4.729,0,0,0,1.35-1.9,7.209,7.209,0,0,0,.53-2.85v-5.15a7.983,7.983,0,0,0-.54-3.09,5.615,5.615,0,0,0-1.39-1.95,6.062,6.062,0,0,0-2.11-1.08,11.68,11.68,0,0,0-2.17-.45c-0.66-.05-1.55-0.09-2.65-0.09-0.74,0-1.57.03-2.48,0.08a10.267,10.267,0,0,0-2.43.52,6.334,6.334,0,0,0-2,1.02,5.217,5.217,0,0,0-1.41,2.02,7.792,7.792,0,0,0-.54,3.02v5.15a6.918,6.918,0,0,0,.54,2.88,5.036,5.036,0,0,0,1.34,1.89,5.336,5.336,0,0,0,2.08,1.03,14.615,14.615,0,0,0,2.24.43c0.69,0.07,1.58.11,2.66,0.11h0Zm0-3.28a7.888,7.888,0,0,1-2.23-.23,1.762,1.762,0,0,1-1.06-.74,2.837,2.837,0,0,1-.31-1.48v-6.58a2.373,2.373,0,0,1,.76-2.02,7.243,7.243,0,0,1,5.68,0,2.373,2.373,0,0,1,.76,2.02v6.58a2.837,2.837,0,0,1-.31,1.48,1.762,1.762,0,0,1-1.06.74,7.888,7.888,0,0,1-2.23.23h0Zm19.01,3.28q5,0,5.58-2.49v2.13h5.18V2106.2h-5.25v12.06a3.55,3.55,0,0,1-.26,1.55,1.392,1.392,0,0,1-.97.7,8.919,8.919,0,0,1-2.27.2,5.78,5.78,0,0,1-1.81-.21,1.31,1.31,0,0,1-.8-0.72,4.49,4.49,0,0,1-.19-1.52V2106.2h-5.26v12.78a4.844,4.844,0,0,0,1.35,3.8c0.9,0.81,2.47,1.21,4.7,1.21h0Zm15.37-.36h5.26v-10.48a2.5,2.5,0,0,1,1.06-2.27,6.237,6.237,0,0,1,3.29-.68h1.8v-4.36h-1.87a4.844,4.844,0,0,0-2.11.51,5.378,5.378,0,0,0-1.74,1.29,2.468,2.468,0,0,0-.69,1.62v-3.06h-5v17.43Zm26.89,0h5.33l6.41-17.43h-5.3l-3.67,12.06-3.81-12.06h-5.58Zm14.18-19.48h5.26v-4.25h-5.26v4.25Zm0,19.48h5.26V2106.2h-5.26v17.43Zm16.53,0.36c0.98,0,1.85-.04,2.59-0.11a13.844,13.844,0,0,0,2.36-.4,5.547,5.547,0,0,0,1.85-.79,3.973,3.973,0,0,0,1.23-1.47,4.915,4.915,0,0,0,.46-2.2v-2.2q0-4.17-6.4-4.17h-2.31a2.311,2.311,0,0,1-1.37-.34,0.99,0.99,0,0,1-.46-0.81v-0.94a1.25,1.25,0,0,1,.57-1.19,8.36,8.36,0,0,1,2.77-.29c0.48,0,2.6.15,6.34,0.44v-3.35q-4.47-.33-6.19-0.33a16.843,16.843,0,0,0-6.52.96,3.288,3.288,0,0,0-2.16,3.22v2.12a3.768,3.768,0,0,0,1.51,3.23,7.235,7.235,0,0,0,4.29,1.09h2.27a3.6,3.6,0,0,1,1.98.38,1.513,1.513,0,0,1,.5,1.28v1.08a1.182,1.182,0,0,1-.79,1.19,7.078,7.078,0,0,1-2.45.32,55.677,55.677,0,0,1-6.95-.75v3.49a53.728,53.728,0,0,0,6.88.54h0Zm12.53-19.84h5.25v-4.25h-5.25v4.25Zm0,19.48h5.25V2106.2h-5.25v17.43Zm18.36,0.36c1,0,1.87-.04,2.59-0.11a11.513,11.513,0,0,0,2.43-.49,5.368,5.368,0,0,0,1.96-.99,4.928,4.928,0,0,0,1.35-1.9,7.211,7.211,0,0,0,.52-2.85v-5.15a7.983,7.983,0,0,0-.54-3.09,5.474,5.474,0,0,0-1.38-1.95,6.152,6.152,0,0,0-2.11-1.08,11.771,11.771,0,0,0-2.18-.45c-0.66-.05-1.54-0.09-2.64-0.09-0.75,0-1.58.03-2.49,0.08a10.48,10.48,0,0,0-2.43.52,6.445,6.445,0,0,0-2,1.02,5.308,5.308,0,0,0-1.4,2.02,7.792,7.792,0,0,0-.54,3.02v5.15a6.918,6.918,0,0,0,.54,2.88,5.021,5.021,0,0,0,1.33,1.89,5.454,5.454,0,0,0,2.09,1.03,14.5,14.5,0,0,0,2.23.43c0.7,0.07,1.59.11,2.67,0.11h0Zm0-3.28a7.968,7.968,0,0,1-2.24-.23,1.825,1.825,0,0,1-1.06-.74,2.95,2.95,0,0,1-.3-1.48v-6.58a2.4,2.4,0,0,1,.75-2.02,7.268,7.268,0,0,1,5.69,0,2.4,2.4,0,0,1,.76,2.02v6.58a2.94,2.94,0,0,1-.31,1.48,1.793,1.793,0,0,1-1.06.74,7.935,7.935,0,0,1-2.23.23h0Zm12.96,2.92h5.25v-12.1a3.8,3.8,0,0,1,.25-1.55,1.465,1.465,0,0,1,.98-0.7,9.373,9.373,0,0,1,2.26-.2,5.75,5.75,0,0,1,1.82.22,1.215,1.215,0,0,1,.79.72,4.184,4.184,0,0,1,.2,1.51v12.1h5.26v-12.78a4.859,4.859,0,0,0-1.35-3.8c-0.9-.8-2.47-1.21-4.7-1.21q-4.965,0-5.58,2.49v-2.13h-5.18v17.43Zm-163.406,47.88h5.256v-10.48a2.5,2.5,0,0,1,1.06-2.27,6.3,6.3,0,0,1,3.3-.68h1.8v-4.36h-1.88a4.835,4.835,0,0,0-2.1.51,5.422,5.422,0,0,0-1.75,1.29,2.5,2.5,0,0,0-.68,1.62v-3.06h-5.006v17.43Zm23.036,0.36a32.364,32.364,0,0,0,6.84-.69v-3.34a26.094,26.094,0,0,1-5.83.75,8.1,8.1,0,0,1-3.89-.65,2.314,2.314,0,0,1-1.08-2.16v-1.58h11.31v-4.25q0-3.375-1.93-4.8t-6.06-1.43c-2.93,0-5.1.5-6.5,1.48a5.39,5.39,0,0,0-2.11,4.75v6.27q0,5.64,9.25,5.65h0Zm-3.96-10.66v-2.52a1.472,1.472,0,0,1,.69-1.29,5.031,5.031,0,0,1,2.55-.44,4.7,4.7,0,0,1,2.36.44,1.405,1.405,0,0,1,.7,1.29v2.52h-6.3Zm20.27,10.66a11.143,11.143,0,0,0,3.96-.47,3.4,3.4,0,0,0,1.66-1.48v1.59h5.15v-11.99a6.539,6.539,0,0,0-.8-3.56,4.308,4.308,0,0,0-2.61-1.73,20.1,20.1,0,0,0-5.16-.51,55.65,55.65,0,0,0-6.66.36v3.32a58.58,58.58,0,0,1,6.12-.44,10.311,10.311,0,0,1,2.43.22,1.673,1.673,0,0,1,1.11.76,3.376,3.376,0,0,1,.31,1.65v1.19h-5.9a8.269,8.269,0,0,0-3.23.52,3.248,3.248,0,0,0-1.69,1.71,8.324,8.324,0,0,0-.52,3.28,9.489,9.489,0,0,0,.49,3.51,2.793,2.793,0,0,0,1.69,1.62,11.078,11.078,0,0,0,3.65.45h0Zm2.05-3.28a8.477,8.477,0,0,1-1.85-.14,0.986,0.986,0,0,1-.7-0.61,5.232,5.232,0,0,1-.18-1.66,5.563,5.563,0,0,1,.18-1.71,1.028,1.028,0,0,1,.68-0.65,6.309,6.309,0,0,1,1.73-.16h3.6v3.38a1.656,1.656,0,0,1-.14.76,1.2,1.2,0,0,1-.35.47,1.606,1.606,0,0,1-.7.21,15.127,15.127,0,0,1-2.27.11h0Zm13.47,2.92h5.25v-25.2h-5.25v25.2Zm10.15-19.48h5.26v-4.25h-5.26v4.25Zm0,19.48h5.26v-17.43h-5.26v17.43Zm18.72,0.36a27.989,27.989,0,0,0,2.91-.18v-3.28a17.19,17.19,0,0,1-1.87.18,4.888,4.888,0,0,1-1.87-.27,1.478,1.478,0,0,1-.83-0.9,6.371,6.371,0,0,1-.21-1.89v-8.21h4.78v-3.24h-4.78v-5.04h-5.26v5.04h-3.53v3.24h3.53v9.11a6.174,6.174,0,0,0,.43,2.41,4.175,4.175,0,0,0,1.03,1.59,4.43,4.43,0,0,0,1.64.9,8.408,8.408,0,0,0,1.8.43,19.568,19.568,0,0,0,2.23.11h0Zm7.7,7.13h5.33l9.54-24.92h-5.44l-3.56,12.32-3.92-12.32h-5.73l6.95,17.28Zm16.96-7.49h5.61v-4.97h-5.61v4.97Z" transform="translate(-996.469 -2050.56)"/>
</svg>
