<svg xmlns="http://www.w3.org/2000/svg" width="474.906" height="38.16" viewBox="0 0 474.906 38.16">
  <defs>
    <style>
      .cls-1 {
        fill: #fff;
        fill-rule: evenodd;
      }
    </style>
  </defs>
  <path id="Make_your_vision_reality." data-name="Make your vision reality." class="cls-1" d="M81.13,3059.75h6.006v-20.16H87.3l7.1,20.16h5.25l6.888-20.16h0.126v20.16h5.922v-27.26H103.81l-6.636,19.49-6.72-19.49H81.13v27.26Zm42.84,0.42a12.807,12.807,0,0,0,4.62-.55,3.945,3.945,0,0,0,1.932-1.72v1.85h6.006v-13.99a7.726,7.726,0,0,0-.924-4.16,5.041,5.041,0,0,0-3.045-2.01,23.86,23.86,0,0,0-6.027-.59,62.723,62.723,0,0,0-7.77.42v3.86a70.072,70.072,0,0,1,7.14-.5,11.748,11.748,0,0,1,2.835.25,2,2,0,0,1,1.3.88,4.09,4.09,0,0,1,.357,1.94v1.38h-6.888a9.532,9.532,0,0,0-3.759.61,3.768,3.768,0,0,0-1.974,2,9.712,9.712,0,0,0-.609,3.82,11.208,11.208,0,0,0,.567,4.09,3.29,3.29,0,0,0,1.974,1.89,12.937,12.937,0,0,0,4.263.53h0Zm2.394-3.82a9.442,9.442,0,0,1-2.163-.17,1.138,1.138,0,0,1-.819-0.72,5.984,5.984,0,0,1-.21-1.93,6.428,6.428,0,0,1,.21-1.99,1.205,1.205,0,0,1,.8-0.76,7.655,7.655,0,0,1,2.016-.19h4.2v3.95a1.815,1.815,0,0,1-.168.88,1.343,1.343,0,0,1-.4.55,2.035,2.035,0,0,1-.819.25,19.7,19.7,0,0,1-2.646.13h0Zm15.54,3.4h6.132v-29.4H141.9v29.4Zm13.734,0h6.93l-7.644-11.47,7.056-8.86h-7.014l-6.678,8.9Zm19.151,0.42a38.305,38.305,0,0,0,7.98-.8v-3.91a30.183,30.183,0,0,1-6.8.89,9.6,9.6,0,0,1-4.536-.76,2.7,2.7,0,0,1-1.26-2.52v-1.85h13.188v-4.95q0-3.945-2.247-5.61t-7.077-1.66q-5.124,0-7.581,1.72T164,3046.27v7.3q0,6.6,10.794,6.6h0Zm-4.62-12.43v-2.94a1.747,1.747,0,0,1,.8-1.52,6.032,6.032,0,0,1,2.982-.5,5.6,5.6,0,0,1,2.751.5,1.668,1.668,0,0,1,.819,1.52v2.94h-7.35Zm29.61,20.74H206l11.13-29.06h-6.342l-4.158,14.36-4.578-14.36h-6.678l8.106,20.16Zm30.114-8.31a29.088,29.088,0,0,0,3.024-.13,14.1,14.1,0,0,0,2.835-.56,6.41,6.41,0,0,0,2.289-1.16,5.7,5.7,0,0,0,1.575-2.23,8.372,8.372,0,0,0,.609-3.31v-6.01a9.363,9.363,0,0,0-.63-3.61,6.384,6.384,0,0,0-1.617-2.27,6.943,6.943,0,0,0-2.457-1.26,12.831,12.831,0,0,0-2.541-.52c-0.771-.07-1.8-0.11-3.087-0.11-0.869,0-1.835.03-2.9,0.08a13.01,13.01,0,0,0-2.835.61,7.493,7.493,0,0,0-2.331,1.2,5.961,5.961,0,0,0-1.638,2.35,9.155,9.155,0,0,0-.63,3.53v6.01a8.125,8.125,0,0,0,.63,3.36,5.964,5.964,0,0,0,1.554,2.2,6.364,6.364,0,0,0,2.436,1.2,16.052,16.052,0,0,0,2.6.5,29.357,29.357,0,0,0,3.108.13h0Zm0-3.82a9.018,9.018,0,0,1-2.6-.28,2.05,2.05,0,0,1-1.239-.86,3.327,3.327,0,0,1-.357-1.72v-7.69a2.8,2.8,0,0,1,.882-2.35,8.551,8.551,0,0,1,6.636,0,2.8,2.8,0,0,1,.882,2.35v7.69a3.347,3.347,0,0,1-.357,1.72,2.056,2.056,0,0,1-1.239.86,9.027,9.027,0,0,1-2.6.28h0Zm22.175,3.82q5.838,0,6.51-2.9v2.48h6.048v-20.33h-6.132v14.07a4.274,4.274,0,0,1-.294,1.81,1.7,1.7,0,0,1-1.134.82,11.139,11.139,0,0,1-2.646.23,6.532,6.532,0,0,1-2.121-.26,1.421,1.421,0,0,1-.924-0.84,5.079,5.079,0,0,1-.231-1.76v-14.07h-6.132v14.91a5.651,5.651,0,0,0,1.575,4.43q1.575,1.41,5.481,1.41h0Zm17.934-.42h6.132v-12.22a2.9,2.9,0,0,1,1.239-2.65,7.262,7.262,0,0,1,3.843-.8h2.1V3039h-2.184a5.72,5.72,0,0,0-2.457.59,6.142,6.142,0,0,0-2.037,1.51,2.9,2.9,0,0,0-.8,1.89v-3.57H270v20.33Zm31.373,0h6.216l7.476-20.33h-6.174l-4.284,14.07-4.452-14.07h-6.51Zm16.548-22.72h6.132v-4.96h-6.132v4.96Zm0,22.72h6.132v-20.33h-6.132v20.33Zm19.278,0.42a29.836,29.836,0,0,0,3.024-.13,17.376,17.376,0,0,0,2.751-.46,6.548,6.548,0,0,0,2.163-.92,4.6,4.6,0,0,0,1.428-1.73,5.643,5.643,0,0,0,.546-2.56v-2.56q0-4.875-7.476-4.87h-2.688a2.654,2.654,0,0,1-1.6-.4,1.16,1.16,0,0,1-.546-0.95v-1.09a1.44,1.44,0,0,1,.672-1.38,9.505,9.505,0,0,1,3.234-.34q0.84,0,7.392.5v-3.9q-5.208-.375-7.224-0.38a19.808,19.808,0,0,0-7.6,1.11,3.855,3.855,0,0,0-2.52,3.76v2.48a4.351,4.351,0,0,0,1.764,3.76,8.426,8.426,0,0,0,5,1.28h2.646a4.205,4.205,0,0,1,2.31.44,1.751,1.751,0,0,1,.588,1.49v1.26a1.387,1.387,0,0,1-.924,1.39,8.071,8.071,0,0,1-2.856.38,64.5,64.5,0,0,1-8.106-.89v4.08a62.618,62.618,0,0,0,8.022.63h0Zm14.616-23.14h6.132v-4.96h-6.132v4.96Zm0,22.72h6.132v-20.33h-6.132v20.33Zm21.419,0.42a29.088,29.088,0,0,0,3.024-.13,14.1,14.1,0,0,0,2.835-.56,6.4,6.4,0,0,0,2.289-1.16,5.679,5.679,0,0,0,1.575-2.23,8.355,8.355,0,0,0,.609-3.31v-6.01a9.363,9.363,0,0,0-.63-3.61,6.372,6.372,0,0,0-1.617-2.27,6.943,6.943,0,0,0-2.457-1.26,12.817,12.817,0,0,0-2.541-.52c-0.77-.07-1.8-0.11-3.087-0.11-0.868,0-1.834.03-2.9,0.08a13.01,13.01,0,0,0-2.835.61,7.493,7.493,0,0,0-2.331,1.2,5.961,5.961,0,0,0-1.638,2.35,9.155,9.155,0,0,0-.63,3.53v6.01a8.125,8.125,0,0,0,.63,3.36,5.976,5.976,0,0,0,1.554,2.2,6.371,6.371,0,0,0,2.436,1.2,16.072,16.072,0,0,0,2.6.5,29.37,29.37,0,0,0,3.108.13h0Zm0-3.82a9.022,9.022,0,0,1-2.6-.28,2.053,2.053,0,0,1-1.239-.86,3.337,3.337,0,0,1-.357-1.72v-7.69a2.8,2.8,0,0,1,.882-2.35,8.551,8.551,0,0,1,6.636,0,2.8,2.8,0,0,1,.882,2.35v7.69a3.337,3.337,0,0,1-.357,1.72,2.053,2.053,0,0,1-1.239.86,9.022,9.022,0,0,1-2.6.28h0Zm15.12,3.4h6.132v-14.11a4.213,4.213,0,0,1,.294-1.81,1.7,1.7,0,0,1,1.134-.82,11.139,11.139,0,0,1,2.646-.23,6.586,6.586,0,0,1,2.121.25,1.471,1.471,0,0,1,.924.84,5.143,5.143,0,0,1,.231,1.77v14.11h6.132v-14.91a5.651,5.651,0,0,0-1.575-4.43q-1.575-1.41-5.481-1.41-5.8,0-6.51,2.9v-2.48h-6.048v20.33Zm34.649,0h6.132v-12.22a2.9,2.9,0,0,1,1.239-2.65,7.267,7.267,0,0,1,3.843-.8h2.1V3039h-2.184a5.726,5.726,0,0,0-2.457.59,6.152,6.152,0,0,0-2.037,1.51,2.9,2.9,0,0,0-.8,1.89v-3.57h-5.838v20.33Zm26.88,0.42a38.305,38.305,0,0,0,7.98-.8v-3.91a30.183,30.183,0,0,1-6.8.89,9.6,9.6,0,0,1-4.536-.76,2.7,2.7,0,0,1-1.26-2.52v-1.85h13.188v-4.95q0-3.945-2.247-5.61t-7.077-1.66q-5.124,0-7.581,1.72t-2.457,5.55v7.3q0,6.6,10.794,6.6h0Zm-4.62-12.43v-2.94a1.747,1.747,0,0,1,.8-1.52,6.03,6.03,0,0,1,2.982-.5,5.607,5.607,0,0,1,2.751.5,1.668,1.668,0,0,1,.819,1.52v2.94h-7.35Zm23.646,12.43a12.807,12.807,0,0,0,4.62-.55,3.949,3.949,0,0,0,1.932-1.72v1.85h6.006v-13.99a7.726,7.726,0,0,0-.924-4.16,5.044,5.044,0,0,0-3.045-2.01,23.866,23.866,0,0,0-6.027-.59,62.712,62.712,0,0,0-7.77.42v3.86a70.072,70.072,0,0,1,7.14-.5,11.748,11.748,0,0,1,2.835.25,2,2,0,0,1,1.3.88,4.09,4.09,0,0,1,.357,1.94v1.38h-6.888a9.532,9.532,0,0,0-3.759.61,3.765,3.765,0,0,0-1.974,2,9.694,9.694,0,0,0-.609,3.82,11.208,11.208,0,0,0,.567,4.09,3.29,3.29,0,0,0,1.974,1.89,12.933,12.933,0,0,0,4.263.53h0Zm2.394-3.82a9.436,9.436,0,0,1-2.163-.17,1.134,1.134,0,0,1-.819-0.72,5.984,5.984,0,0,1-.21-1.93,6.428,6.428,0,0,1,.21-1.99,1.2,1.2,0,0,1,.8-0.76,7.645,7.645,0,0,1,2.016-.19h4.2v3.95a1.815,1.815,0,0,1-.168.88,1.352,1.352,0,0,1-.4.55,2.046,2.046,0,0,1-.819.25,19.727,19.727,0,0,1-2.646.13h0Zm15.707,3.4h6.132v-29.4h-6.132v29.4Zm11.844-22.72h6.132v-4.96h-6.132v4.96Zm0,22.72h6.132v-20.33h-6.132v20.33Zm21.84,0.42a32.813,32.813,0,0,0,3.4-.21v-3.82a20.237,20.237,0,0,1-2.184.21,5.692,5.692,0,0,1-2.184-.32,1.708,1.708,0,0,1-.966-1.05,7.2,7.2,0,0,1-.252-2.2v-9.58H524.1v-3.78h-5.586v-5.88H512.38v5.88h-4.116v3.78h4.116v10.63a7.3,7.3,0,0,0,.5,2.81,4.919,4.919,0,0,0,1.2,1.85,5.046,5.046,0,0,0,1.911,1.05,9.422,9.422,0,0,0,2.1.5,21.076,21.076,0,0,0,2.6.13h0Zm8.988,8.31H535.9l11.13-29.06h-6.342l-4.158,14.36-4.578-14.36h-6.678l8.106,20.16Zm19.782-8.73h6.552v-5.8h-6.552v5.8Z" transform="translate(-81.125 -3030.34)"/>
</svg>
