<svg xmlns="http://www.w3.org/2000/svg" width="65.312" height="14.28" viewBox="0 0 65.312 14.28">
  <defs>
    <style>
      .cls-1 {
        fill: #00a2ff;
        fill-rule: evenodd;
      }
    </style>
  </defs>
  <path id="tl_contact.svg" class="cls-1" d="M615.081,4577.48a7.175,7.175,0,0,0,4-1.19v-1.83a5.5,5.5,0,0,1-3.987,1.59,5.721,5.721,0,0,1,0-11.44,6.088,6.088,0,0,1,3.987,1.53v-1.79a7.174,7.174,0,0,0-11.1,6.02A7.016,7.016,0,0,0,615.081,4577.48Zm10.92,0a4.51,4.51,0,1,0-4.481-4.55A4.388,4.388,0,0,0,626,4577.48Zm0.018-1.32a2.968,2.968,0,0,1-3.017-3.21A3.031,3.031,0,1,1,626.019,4576.16Zm8.706,1.06v-4.53c0-2.01.9-2.91,2.286-2.91,1.244,0,1.884.71,1.884,2.43v5.01h1.463v-5.34c0-2.21-.987-3.42-2.889-3.42a3.038,3.038,0,0,0-2.707,1.47h-0.037v-1.23h-1.463v8.52h1.463Zm10.7,0v-7.15h1.555v-1.37h-1.555v-3.14h-1.463v3.14h-1.426v1.37h1.426v7.15h1.463Zm7.3,0.26a3.63,3.63,0,0,0,3.109-1.72h0.018v1.46h1.463v-8.52H655.85v1.47h-0.018a3.616,3.616,0,0,0-3.146-1.69A4.51,4.51,0,0,0,652.723,4577.48Zm0.219-1.32a2.959,2.959,0,0,1-2.962-3.21A3,3,0,1,1,652.942,4576.16Zm11.669,1.32a4.171,4.171,0,0,0,2.359-.68v-1.59a3.481,3.481,0,0,1-2.432.95,2.934,2.934,0,0,1-3-3.2,2.977,2.977,0,0,1,3.036-3.18,3.181,3.181,0,0,1,2.395.99v-1.67a4.578,4.578,0,0,0-6.912,3.88A4.345,4.345,0,0,0,664.611,4577.48Zm7.152-.26v-7.15h1.554v-1.37h-1.554v-3.14H670.3v3.14h-1.427v1.37H670.3v7.15h1.463Z" transform="translate(-608 -4563.19)"/>
</svg>
