<svg xmlns="http://www.w3.org/2000/svg" width="94.469" height="19.81" viewBox="0 0 94.469 19.81">
  <defs>
    <style>
      .cls-1 {
        fill: #00a2ff;
        fill-rule: evenodd;
      }
    </style>
  </defs>
  <path id="tl_case_study.svg" class="cls-1" d="M88.1,3767.48a7.175,7.175,0,0,0,4-1.19v-1.83a5.5,5.5,0,0,1-3.987,1.59,5.721,5.721,0,0,1,0-11.44,6.088,6.088,0,0,1,3.987,1.53v-1.79a7.174,7.174,0,0,0-11.1,6.02A7.015,7.015,0,0,0,88.1,3767.48Zm10.664,0a3.63,3.63,0,0,0,3.109-1.72h0.018v1.46h1.463v-8.52h-1.463v1.47h-0.018a3.615,3.615,0,0,0-3.145-1.69A4.51,4.51,0,0,0,98.765,3767.48Zm0.22-1.32a2.959,2.959,0,0,1-2.963-3.21A3,3,0,1,1,98.985,3766.16Zm9.84,1.32a2.61,2.61,0,0,0,2.8-2.67c0-1.19-.53-1.94-2.03-2.61-1.5-.64-1.92-0.94-1.92-1.5a0.967,0.967,0,0,1,1.115-.92,1.76,1.76,0,0,1,1.445.82l1.079-.86a2.852,2.852,0,0,0-2.5-1.28,2.318,2.318,0,0,0-2.542,2.27c0,1.14.6,1.81,2.084,2.47,1.409,0.62,1.866.99,1.866,1.72a1.232,1.232,0,0,1-1.39,1.23,2.041,2.041,0,0,1-1.92-1.36l-1.116.83A3.126,3.126,0,0,0,108.825,3767.48Zm12.967-4.64c0-2.49-1.463-4.38-4-4.38-2.469,0-4.152,1.87-4.152,4.5,0,2.67,1.665,4.52,4.188,4.52a4.1,4.1,0,0,0,3.768-2.08l-1.207-.74a2.772,2.772,0,0,1-5.231-1.42h6.639v-0.4Zm-6.547-.81a2.555,2.555,0,0,1,2.56-2.25,2.414,2.414,0,0,1,2.487,2.25h-5.047Zm18.4,5.45a3.814,3.814,0,0,0,4.042-3.84c0-2.12-.969-3.25-3.493-4.39-2.1-.93-2.871-1.5-2.871-2.63a2.048,2.048,0,0,1,2.194-2.01,2.693,2.693,0,0,1,2.469,1.59l1.262-.73a4.034,4.034,0,0,0-3.731-2.29,3.516,3.516,0,0,0-3.712,3.44c0,1.92,1.207,2.8,3.456,3.8,2.213,1.01,2.89,1.79,2.89,3.2a2.361,2.361,0,0,1-2.506,2.43,3.279,3.279,0,0,1-3.145-2.34l-1.409.59A4.643,4.643,0,0,0,133.644,3767.48Zm8.834-.26v-7.15h1.555v-1.37h-1.555v-3.14h-1.463v3.14h-1.426v1.37h1.426v7.15h1.463Zm7.207,0.24c2.34,0,3.456-1.46,3.456-3.76v-5h-1.463v4.94c0,1.59-.6,2.51-1.993,2.51-1.409,0-1.976-.86-1.976-2.51v-4.94h-1.463v5C146.246,3766.2,147.49,3767.46,149.685,3767.46Zm10.224-.02a3.626,3.626,0,0,0,3.145-1.68h0.018v1.46h1.464v-14.99h-1.464v7.92h-0.018a3.643,3.643,0,0,0-3.109-1.69A4.5,4.5,0,0,0,159.909,3767.44Zm0.256-1.29a3,3,0,0,1-2.963-3.19,2.95,2.95,0,0,1,2.963-3.18,2.994,2.994,0,0,1,3.017,3.17A3.025,3.025,0,0,1,160.165,3766.15Zm10.955-1.76-2.889-5.69h-1.7l3.841,7.24-3.036,6.08h1.646l6.492-13.32h-1.646Z" transform="translate(-81 -3752.22)"/>
</svg>
