<svg xmlns="http://www.w3.org/2000/svg" width="34.312" height="11.82" viewBox="0 0 34.312 11.82">
  <defs>
    <style>
      .cls-1 {
        fill: #00a2ff;
        fill-rule: evenodd;
      }
    </style>
  </defs>
  <path id="tl_news.svg" class="cls-1" d="M688.072,1653.51l-7.821-8.91h-0.042v11.29h1.18v-8.39l7.82,8.9h0.043v-11.23h-1.18v8.34Zm9.826-1.04a3.076,3.076,0,0,0-3.114-3.39,3.516,3.516,0,0,0,.028,7.01,3.177,3.177,0,0,0,2.93-1.62l-0.939-.57a2.157,2.157,0,0,1-4.067-1.11H697.9v-0.32Zm-5.09-.62a1.987,1.987,0,0,1,1.99-1.75,1.878,1.878,0,0,1,1.934,1.75h-3.924Zm9.214,4.44,2-4.97,1.991,4.95h0.028l3.228-7.01h-1.266l-1.948,4.57-2.033-5.04h-0.014l-2.019,5.04-1.963-4.57h-1.279l3.242,7.03h0.028Zm10.338-.2a2.033,2.033,0,0,0,2.176-2.08,2.089,2.089,0,0,0-1.579-2.03c-1.166-.5-1.493-0.73-1.493-1.17a0.754,0.754,0,0,1,.868-0.71,1.357,1.357,0,0,1,1.123.64l0.839-.67a2.2,2.2,0,0,0-1.948-.99,1.8,1.8,0,0,0-1.977,1.76c0,0.88.47,1.41,1.621,1.92,1.1,0.48,1.451.77,1.451,1.34a0.956,0.956,0,0,1-1.081.95,1.588,1.588,0,0,1-1.493-1.05l-0.867.64A2.437,2.437,0,0,0,712.36,1656.09Z" transform="translate(-680.219 -1644.59)"/>
</svg>
