<svg xmlns="http://www.w3.org/2000/svg" width="74.531" height="10.93" viewBox="0 0 74.531 10.93">
  <defs>
    <style>
      .cls-1 {
        fill: #00a2ff;
        fill-rule: evenodd;
      }
    </style>
  </defs>
  <path id="tl_recruitment.svg" class="cls-1" d="M85.1,1647.2a3.078,3.078,0,0,0,2.6-3.03c0-2.05-1.621-3-3.939-3h-1.55v10.72h1.18v-4.61h0.455l3.2,4.61h1.436Zm-1.152-4.92c1.621,0,2.6.64,2.6,1.91,0,1.38-1.01,2.07-2.616,2.07h-0.54v-3.98h0.555Zm11.817,6.19a3.075,3.075,0,0,0-3.114-3.39,3.516,3.516,0,0,0,.028,7.01,3.175,3.175,0,0,0,2.929-1.62l-0.939-.57a2.157,2.157,0,0,1-4.067-1.11H95.76v-0.32Zm-5.09-.62a1.988,1.988,0,0,1,1.991-1.75,1.877,1.877,0,0,1,1.934,1.75H90.67Zm10.238,4.24a3.314,3.314,0,0,0,1.834-.53v-1.24a2.673,2.673,0,0,1-1.891.74,2.279,2.279,0,0,1-2.332-2.49,2.316,2.316,0,0,1,2.36-2.47,2.485,2.485,0,0,1,1.863.77v-1.3a3.57,3.57,0,0,0-5.375,3.02A3.383,3.383,0,0,0,100.908,1652.09Zm5.247-.2v-3.61c0-1.41.512-2.09,1.308-2.09a1.314,1.314,0,0,1,.782.25l0.527-1.04a2.19,2.19,0,0,0-1.095-.32,1.73,1.73,0,0,0-1.493,1.01h-0.029v-0.83h-1.137v6.63h1.137Zm6.826,0.18c1.82,0,2.687-1.14,2.687-2.93v-3.88h-1.137v3.84c0,1.24-.47,1.95-1.55,1.95s-1.536-.67-1.536-1.95v-3.84h-1.138v3.88C110.307,1651.09,111.274,1652.07,112.981,1652.07Zm5.759-8.87a0.775,0.775,0,1,0-.782-0.78A0.782,0.782,0,0,0,118.74,1643.2Zm0.569,8.69v-6.63h-1.138v6.63h1.138Zm4.081,0v-5.56H124.6v-1.07H123.39v-2.44h-1.138v2.44h-1.109v1.07h1.109v5.56h1.138Zm4.166,0v-3.69c0-1.35.526-2.1,1.55-2.1,0.9,0,1.351.58,1.351,1.82v3.97h1.137v-3.73c0-1.32.512-2.06,1.522-2.06,0.938,0,1.379.55,1.379,1.92v3.87h1.138v-4.17c0-1.78-.8-2.64-2.261-2.64a2.37,2.37,0,0,0-2.09,1.22h-0.015a1.829,1.829,0,0,0-1.862-1.22,2.011,2.011,0,0,0-1.835,1.06h-0.014v-0.88h-1.137v6.63h1.137Zm16.424-3.42a3.075,3.075,0,0,0-3.114-3.39,3.516,3.516,0,0,0,.028,7.01,3.177,3.177,0,0,0,2.93-1.62l-0.939-.57a2.156,2.156,0,0,1-4.066-1.11h5.161v-0.32Zm-5.09-.62a1.987,1.987,0,0,1,1.99-1.75,1.877,1.877,0,0,1,1.934,1.75H138.89Zm8.332,4.04v-3.53c0-1.56.7-2.26,1.778-2.26,0.967,0,1.464.55,1.464,1.89v3.9H151.6v-4.15c0-1.73-.768-2.66-2.247-2.66a2.357,2.357,0,0,0-2.1,1.13h-0.029v-0.95h-1.137v6.63h1.137Zm8.319,0v-5.56h1.209v-1.07h-1.209v-2.44H154.4v2.44h-1.109v1.07H154.4v5.56h1.137Z" transform="translate(-82.219 -1641.16)"/>
</svg>
