<svg xmlns="http://www.w3.org/2000/svg" width="52.218" height="10.25" viewBox="0 0 52.218 10.25">
  <defs>
    <style>
      .cls-1 {
        fill: #00a2ff;
        fill-rule: evenodd;
      }
    </style>
  </defs>
  <path id="tl_solution.svg" class="cls-1" d="M81.6,2410.97a4.962,4.962,0,0,0,2.445.62c2.261,0,3.355-1.28,3.355-2.76,0-1.41-.825-2.19-2.445-2.82-1.322-.51-1.905-0.95-1.905-1.85a1.549,1.549,0,0,1,1.806-1.43,3.834,3.834,0,0,1,1.82.45l0.341-1.01a4.372,4.372,0,0,0-2.118-.47c-1.863,0-3.1,1.11-3.1,2.61,0,1.35.967,2.16,2.531,2.71,1.294,0.5,1.806,1.01,1.806,1.91,0,0.96-.739,1.63-2,1.63a4.394,4.394,0,0,1-2.218-.62Zm11.02-6.56a3.359,3.359,0,0,0-3.412,3.65,3.274,3.274,0,0,0,3.3,3.54,3.362,3.362,0,0,0,3.427-3.65A3.255,3.255,0,0,0,92.617,2404.41Zm-0.028.93c1.479,0,2.062,1.48,2.062,2.65,0,1.55-.9,2.67-2.09,2.67-1.223,0-2.09-1.14-2.09-2.64C90.47,2406.71,91.11,2405.34,92.589,2405.34Zm5.489,6.1h1.251v-10.09H98.078v10.09Zm9.683-6.88H106.51v4.22a1.764,1.764,0,0,1-1.763,1.78c-1.138,0-1.536-.88-1.536-2.19v-3.81H101.96v4.03c0,2.41,1.294,3.01,2.374,3.01a2.6,2.6,0,0,0,2.275-1.28h0.029l0.071,1.12h1.109c-0.043-.54-0.057-1.16-0.057-1.87v-5.01Zm2.93-1.65v1.65h-1.067v0.95h1.067v3.76a2.549,2.549,0,0,0,.483,1.79,1.741,1.741,0,0,0,1.351.53,3.024,3.024,0,0,0,1.109-.18l-0.057-.93a2.955,2.955,0,0,1-.725.08c-0.7,0-.938-0.48-0.938-1.34v-3.71h1.791v-0.95h-1.791v-1.97Zm6.242,8.53v-6.88h-1.251v6.88h1.251Zm-0.625-9.59a0.761,0.761,0,0,0-.782.78,0.775,0.775,0,0,0,1.549,0A0.741,0.741,0,0,0,116.308,2401.85Zm6.185,2.56a3.358,3.358,0,0,0-3.412,3.65,3.274,3.274,0,0,0,3.3,3.54,3.363,3.363,0,0,0,3.427-3.65A3.256,3.256,0,0,0,122.493,2404.41Zm-0.029.93c1.479,0,2.062,1.48,2.062,2.65,0,1.55-.9,2.67-2.09,2.67-1.223,0-2.09-1.14-2.09-2.64C120.346,2406.71,120.986,2405.34,122.464,2405.34Zm5.49,6.1h1.251v-4.13a1.828,1.828,0,0,1,.085-0.59,1.786,1.786,0,0,1,1.678-1.28c1.18,0,1.592.93,1.592,2.04v3.96h1.251v-4.11c0-2.36-1.478-2.92-2.431-2.92a2.518,2.518,0,0,0-2.275,1.29h-0.028l-0.071-1.14H127.9c0.042,0.57.057,1.15,0.057,1.86v5.02Z" transform="translate(-81.594 -2401.34)"/>
</svg>
