<svg xmlns="http://www.w3.org/2000/svg" width="63.812" height="56" viewBox="0 0 63.812 56">
  <defs>
    <style>
      .cls-1 {
        fill: #fff;
        fill-rule: evenodd;
      }
    </style>
  </defs>
  <path id="icn" class="cls-1" d="M402.994,90a5,5,0,1,1,4.985-5A5,5,0,0,1,402.994,90Zm0-8a3,3,0,1,0,2.991,3A3,3,0,0,0,402.994,82Zm7.684,25.707-1.409-1.414L415.543,100l-5.983-6H396.428l-5.983,6,6.275,6.293-1.41,1.414-6.98-7a1,1,0,0,1,0-1.414l6.98-7a1,1,0,0,1,.7-0.293h13.958a1,1,0,0,1,.7.293l6.98,7a1,1,0,0,1,0,1.414ZM399.006,136h-1.994V97a1,1,0,0,1,1-1h4.985v2h-3.988v38Zm9.97,0h-1.994V96h1.994v40Zm-4.985,0H402V111h1.994v25Zm15.953-46a5,5,0,1,1,4.985-5A5,5,0,0,1,419.944,90Zm0-8a3,3,0,1,0,2.991,3A3,3,0,0,0,419.944,82Zm7.684,25.707-1.41-1.414L432.493,100l-5.983-6H415.956V92h10.967a1,1,0,0,1,.7.293l6.979,7a1,1,0,0,1,0,1.414ZM415.956,136h-1.994V108h1.994v28Zm9.97,0h-1.994V98h-3.988V96h4.985a1,1,0,0,1,1,1v39Zm-4.985,0h-1.994V111h1.994v25Zm-34.9-46a5,5,0,1,1,4.985-5A5,5,0,0,1,386.044,90Zm0-8a3,3,0,1,0,2.991,3A3,3,0,0,0,386.044,82Zm-7.684,25.707-6.979-7a1,1,0,0,1,0-1.414l6.979-7a1,1,0,0,1,.7-0.293h10.967v2H379.478l-5.982,6,6.274,6.293Zm3.7,28.293h-1.994V97a1,1,0,0,1,1-1h4.985v2h-3.988v38Zm9.971,0h-2V108h2v28Zm-4.986,0h-1.994V111h1.994v25Z" transform="translate(-371.094 -80)"/>
</svg>
